G75*
%MOIN*%
%OFA0B0*%
%FSLAX25Y25*%
%IPPOS*%
%LPD*%
%AMOC8*
5,1,8,0,0,1.08239X$1,22.5*
%
%ADD10C,0.00300*%
%ADD11C,0.00600*%
%ADD12C,0.01000*%
%ADD13C,0.00500*%
%ADD14C,0.00400*%
D10*
X0049088Y0035870D02*
X0049705Y0035252D01*
X0052174Y0035252D01*
X0052791Y0035870D01*
X0052791Y0037104D01*
X0052174Y0037721D01*
X0050939Y0037721D01*
X0050939Y0036487D01*
X0049705Y0037721D02*
X0049088Y0037104D01*
X0049088Y0035870D01*
X0049088Y0038936D02*
X0052791Y0041404D01*
X0049088Y0041404D01*
X0049088Y0042619D02*
X0049088Y0044470D01*
X0049705Y0045087D01*
X0052174Y0045087D01*
X0052791Y0044470D01*
X0052791Y0042619D01*
X0049088Y0042619D01*
X0049088Y0038936D02*
X0052791Y0038936D01*
X0059056Y0038631D02*
X0062759Y0038631D01*
X0062759Y0039865D02*
X0062759Y0037396D01*
X0060908Y0036182D02*
X0060908Y0033713D01*
X0059673Y0034947D02*
X0062142Y0034947D01*
X0060291Y0037396D02*
X0059056Y0038631D01*
X0059673Y0041079D02*
X0059056Y0041696D01*
X0059056Y0042931D01*
X0059673Y0043548D01*
X0060291Y0043548D01*
X0062759Y0041079D01*
X0062759Y0043548D01*
X0061525Y0044762D02*
X0062759Y0045997D01*
X0061525Y0047231D01*
X0059056Y0047231D01*
X0059056Y0044762D02*
X0061525Y0044762D01*
X0069029Y0047536D02*
X0070263Y0046302D01*
X0071498Y0046302D01*
X0072732Y0047536D01*
X0072732Y0048757D02*
X0069029Y0048757D01*
X0072732Y0051226D01*
X0069029Y0051226D01*
X0069029Y0052440D02*
X0070263Y0053675D01*
X0071498Y0053675D01*
X0072732Y0052440D01*
X0079359Y0052440D02*
X0080594Y0053675D01*
X0081828Y0053675D01*
X0083063Y0052440D01*
X0083063Y0051226D02*
X0083063Y0048757D01*
X0079359Y0048757D01*
X0079359Y0047536D02*
X0080594Y0046302D01*
X0081828Y0046302D01*
X0083063Y0047536D01*
X0082445Y0041404D02*
X0083063Y0040787D01*
X0083063Y0039553D01*
X0082445Y0038936D01*
X0079977Y0038936D01*
X0079359Y0039553D01*
X0079359Y0040787D01*
X0079977Y0041404D01*
X0080594Y0037721D02*
X0083063Y0037721D01*
X0081211Y0037721D02*
X0081211Y0035252D01*
X0080594Y0035252D02*
X0079359Y0036487D01*
X0080594Y0037721D01*
X0080594Y0035252D02*
X0083063Y0035252D01*
X0072732Y0035252D02*
X0070263Y0035252D01*
X0069029Y0036487D01*
X0070263Y0037721D01*
X0072732Y0037721D01*
X0072115Y0038936D02*
X0072732Y0039553D01*
X0072732Y0040787D01*
X0072115Y0041404D01*
X0072115Y0038936D02*
X0069646Y0038936D01*
X0069029Y0039553D01*
X0069029Y0040787D01*
X0069646Y0041404D01*
X0070880Y0037721D02*
X0070880Y0035252D01*
X0219981Y0026782D02*
X0219981Y0023079D01*
X0222449Y0023079D01*
X0229378Y0023307D02*
X0229378Y0027011D01*
X0231847Y0023307D01*
X0231847Y0027011D01*
D11*
X0032500Y0016000D02*
X0031500Y0016000D01*
X0031500Y0015000D01*
X0031500Y0016000D02*
X0030500Y0016000D01*
X0031500Y0016000D02*
X0031500Y0017000D01*
X0016000Y0021000D02*
X0016003Y0021245D01*
X0016012Y0021491D01*
X0016027Y0021736D01*
X0016048Y0021980D01*
X0016075Y0022224D01*
X0016108Y0022467D01*
X0016147Y0022710D01*
X0016192Y0022951D01*
X0016243Y0023191D01*
X0016300Y0023430D01*
X0016362Y0023667D01*
X0016431Y0023903D01*
X0016505Y0024137D01*
X0016585Y0024369D01*
X0016670Y0024599D01*
X0016761Y0024827D01*
X0016858Y0025052D01*
X0016960Y0025276D01*
X0017068Y0025496D01*
X0017181Y0025714D01*
X0017299Y0025929D01*
X0017423Y0026141D01*
X0017551Y0026350D01*
X0017685Y0026556D01*
X0017824Y0026758D01*
X0017968Y0026957D01*
X0018117Y0027152D01*
X0018270Y0027344D01*
X0018428Y0027532D01*
X0018590Y0027716D01*
X0018758Y0027895D01*
X0018929Y0028071D01*
X0019105Y0028242D01*
X0019284Y0028410D01*
X0019468Y0028572D01*
X0019656Y0028730D01*
X0019848Y0028883D01*
X0020043Y0029032D01*
X0020242Y0029176D01*
X0020444Y0029315D01*
X0020650Y0029449D01*
X0020859Y0029577D01*
X0021071Y0029701D01*
X0021286Y0029819D01*
X0021504Y0029932D01*
X0021724Y0030040D01*
X0021948Y0030142D01*
X0022173Y0030239D01*
X0022401Y0030330D01*
X0022631Y0030415D01*
X0022863Y0030495D01*
X0023097Y0030569D01*
X0023333Y0030638D01*
X0023570Y0030700D01*
X0023809Y0030757D01*
X0024049Y0030808D01*
X0024290Y0030853D01*
X0024533Y0030892D01*
X0024776Y0030925D01*
X0025020Y0030952D01*
X0025264Y0030973D01*
X0025509Y0030988D01*
X0025755Y0030997D01*
X0026000Y0031000D01*
X0026245Y0030997D01*
X0026491Y0030988D01*
X0026736Y0030973D01*
X0026980Y0030952D01*
X0027224Y0030925D01*
X0027467Y0030892D01*
X0027710Y0030853D01*
X0027951Y0030808D01*
X0028191Y0030757D01*
X0028430Y0030700D01*
X0028667Y0030638D01*
X0028903Y0030569D01*
X0029137Y0030495D01*
X0029369Y0030415D01*
X0029599Y0030330D01*
X0029827Y0030239D01*
X0030052Y0030142D01*
X0030276Y0030040D01*
X0030496Y0029932D01*
X0030714Y0029819D01*
X0030929Y0029701D01*
X0031141Y0029577D01*
X0031350Y0029449D01*
X0031556Y0029315D01*
X0031758Y0029176D01*
X0031957Y0029032D01*
X0032152Y0028883D01*
X0032344Y0028730D01*
X0032532Y0028572D01*
X0032716Y0028410D01*
X0032895Y0028242D01*
X0033071Y0028071D01*
X0033242Y0027895D01*
X0033410Y0027716D01*
X0033572Y0027532D01*
X0033730Y0027344D01*
X0033883Y0027152D01*
X0034032Y0026957D01*
X0034176Y0026758D01*
X0034315Y0026556D01*
X0034449Y0026350D01*
X0034577Y0026141D01*
X0034701Y0025929D01*
X0034819Y0025714D01*
X0034932Y0025496D01*
X0035040Y0025276D01*
X0035142Y0025052D01*
X0035239Y0024827D01*
X0035330Y0024599D01*
X0035415Y0024369D01*
X0035495Y0024137D01*
X0035569Y0023903D01*
X0035638Y0023667D01*
X0035700Y0023430D01*
X0035757Y0023191D01*
X0035808Y0022951D01*
X0035853Y0022710D01*
X0035892Y0022467D01*
X0035925Y0022224D01*
X0035952Y0021980D01*
X0035973Y0021736D01*
X0035988Y0021491D01*
X0035997Y0021245D01*
X0036000Y0021000D01*
X0035997Y0020755D01*
X0035988Y0020509D01*
X0035973Y0020264D01*
X0035952Y0020020D01*
X0035925Y0019776D01*
X0035892Y0019533D01*
X0035853Y0019290D01*
X0035808Y0019049D01*
X0035757Y0018809D01*
X0035700Y0018570D01*
X0035638Y0018333D01*
X0035569Y0018097D01*
X0035495Y0017863D01*
X0035415Y0017631D01*
X0035330Y0017401D01*
X0035239Y0017173D01*
X0035142Y0016948D01*
X0035040Y0016724D01*
X0034932Y0016504D01*
X0034819Y0016286D01*
X0034701Y0016071D01*
X0034577Y0015859D01*
X0034449Y0015650D01*
X0034315Y0015444D01*
X0034176Y0015242D01*
X0034032Y0015043D01*
X0033883Y0014848D01*
X0033730Y0014656D01*
X0033572Y0014468D01*
X0033410Y0014284D01*
X0033242Y0014105D01*
X0033071Y0013929D01*
X0032895Y0013758D01*
X0032716Y0013590D01*
X0032532Y0013428D01*
X0032344Y0013270D01*
X0032152Y0013117D01*
X0031957Y0012968D01*
X0031758Y0012824D01*
X0031556Y0012685D01*
X0031350Y0012551D01*
X0031141Y0012423D01*
X0030929Y0012299D01*
X0030714Y0012181D01*
X0030496Y0012068D01*
X0030276Y0011960D01*
X0030052Y0011858D01*
X0029827Y0011761D01*
X0029599Y0011670D01*
X0029369Y0011585D01*
X0029137Y0011505D01*
X0028903Y0011431D01*
X0028667Y0011362D01*
X0028430Y0011300D01*
X0028191Y0011243D01*
X0027951Y0011192D01*
X0027710Y0011147D01*
X0027467Y0011108D01*
X0027224Y0011075D01*
X0026980Y0011048D01*
X0026736Y0011027D01*
X0026491Y0011012D01*
X0026245Y0011003D01*
X0026000Y0011000D01*
X0025755Y0011003D01*
X0025509Y0011012D01*
X0025264Y0011027D01*
X0025020Y0011048D01*
X0024776Y0011075D01*
X0024533Y0011108D01*
X0024290Y0011147D01*
X0024049Y0011192D01*
X0023809Y0011243D01*
X0023570Y0011300D01*
X0023333Y0011362D01*
X0023097Y0011431D01*
X0022863Y0011505D01*
X0022631Y0011585D01*
X0022401Y0011670D01*
X0022173Y0011761D01*
X0021948Y0011858D01*
X0021724Y0011960D01*
X0021504Y0012068D01*
X0021286Y0012181D01*
X0021071Y0012299D01*
X0020859Y0012423D01*
X0020650Y0012551D01*
X0020444Y0012685D01*
X0020242Y0012824D01*
X0020043Y0012968D01*
X0019848Y0013117D01*
X0019656Y0013270D01*
X0019468Y0013428D01*
X0019284Y0013590D01*
X0019105Y0013758D01*
X0018929Y0013929D01*
X0018758Y0014105D01*
X0018590Y0014284D01*
X0018428Y0014468D01*
X0018270Y0014656D01*
X0018117Y0014848D01*
X0017968Y0015043D01*
X0017824Y0015242D01*
X0017685Y0015444D01*
X0017551Y0015650D01*
X0017423Y0015859D01*
X0017299Y0016071D01*
X0017181Y0016286D01*
X0017068Y0016504D01*
X0016960Y0016724D01*
X0016858Y0016948D01*
X0016761Y0017173D01*
X0016670Y0017401D01*
X0016585Y0017631D01*
X0016505Y0017863D01*
X0016431Y0018097D01*
X0016362Y0018333D01*
X0016300Y0018570D01*
X0016243Y0018809D01*
X0016192Y0019049D01*
X0016147Y0019290D01*
X0016108Y0019533D01*
X0016075Y0019776D01*
X0016048Y0020020D01*
X0016027Y0020264D01*
X0016012Y0020509D01*
X0016003Y0020755D01*
X0016000Y0021000D01*
X0012000Y0051500D02*
X0020000Y0051500D01*
X0020060Y0051502D01*
X0020121Y0051507D01*
X0020180Y0051516D01*
X0020239Y0051529D01*
X0020298Y0051545D01*
X0020355Y0051565D01*
X0020410Y0051588D01*
X0020465Y0051615D01*
X0020517Y0051644D01*
X0020568Y0051677D01*
X0020617Y0051713D01*
X0020663Y0051751D01*
X0020707Y0051793D01*
X0020749Y0051837D01*
X0020787Y0051883D01*
X0020823Y0051932D01*
X0020856Y0051983D01*
X0020885Y0052035D01*
X0020912Y0052090D01*
X0020935Y0052145D01*
X0020955Y0052202D01*
X0020971Y0052261D01*
X0020984Y0052320D01*
X0020993Y0052379D01*
X0020998Y0052440D01*
X0021000Y0052500D01*
X0021000Y0069500D01*
X0020998Y0069560D01*
X0020993Y0069621D01*
X0020984Y0069680D01*
X0020971Y0069739D01*
X0020955Y0069798D01*
X0020935Y0069855D01*
X0020912Y0069910D01*
X0020885Y0069965D01*
X0020856Y0070017D01*
X0020823Y0070068D01*
X0020787Y0070117D01*
X0020749Y0070163D01*
X0020707Y0070207D01*
X0020663Y0070249D01*
X0020617Y0070287D01*
X0020568Y0070323D01*
X0020517Y0070356D01*
X0020465Y0070385D01*
X0020410Y0070412D01*
X0020355Y0070435D01*
X0020298Y0070455D01*
X0020239Y0070471D01*
X0020180Y0070484D01*
X0020121Y0070493D01*
X0020060Y0070498D01*
X0020000Y0070500D01*
X0012000Y0070500D01*
X0011940Y0070498D01*
X0011879Y0070493D01*
X0011820Y0070484D01*
X0011761Y0070471D01*
X0011702Y0070455D01*
X0011645Y0070435D01*
X0011590Y0070412D01*
X0011535Y0070385D01*
X0011483Y0070356D01*
X0011432Y0070323D01*
X0011383Y0070287D01*
X0011337Y0070249D01*
X0011293Y0070207D01*
X0011251Y0070163D01*
X0011213Y0070117D01*
X0011177Y0070068D01*
X0011144Y0070017D01*
X0011115Y0069965D01*
X0011088Y0069910D01*
X0011065Y0069855D01*
X0011045Y0069798D01*
X0011029Y0069739D01*
X0011016Y0069680D01*
X0011007Y0069621D01*
X0011002Y0069560D01*
X0011000Y0069500D01*
X0011000Y0052500D01*
X0011002Y0052440D01*
X0011007Y0052379D01*
X0011016Y0052320D01*
X0011029Y0052261D01*
X0011045Y0052202D01*
X0011065Y0052145D01*
X0011088Y0052090D01*
X0011115Y0052035D01*
X0011144Y0051983D01*
X0011177Y0051932D01*
X0011213Y0051883D01*
X0011251Y0051837D01*
X0011293Y0051793D01*
X0011337Y0051751D01*
X0011383Y0051713D01*
X0011432Y0051677D01*
X0011483Y0051644D01*
X0011535Y0051615D01*
X0011590Y0051588D01*
X0011645Y0051565D01*
X0011702Y0051545D01*
X0011761Y0051529D01*
X0011820Y0051516D01*
X0011879Y0051507D01*
X0011940Y0051502D01*
X0012000Y0051500D01*
X0016000Y0059500D02*
X0016000Y0060000D01*
X0016000Y0062000D02*
X0016000Y0062500D01*
D12*
X0016000Y0062000D02*
X0019000Y0062000D01*
X0019000Y0060000D02*
X0016000Y0060000D01*
X0013000Y0060000D01*
X0013000Y0062000D02*
X0016000Y0062000D01*
X0046000Y0033500D02*
X0046000Y0026000D01*
X0086000Y0026000D01*
X0086000Y0008500D01*
X0046000Y0008500D01*
X0046000Y0026000D01*
X0046000Y0033500D02*
X0086000Y0033500D01*
X0086000Y0026000D01*
X0216000Y0028500D02*
X0216000Y0046000D01*
X0236000Y0046000D01*
X0236000Y0028500D01*
X0216000Y0028500D01*
X0216000Y0046000D02*
X0216000Y0053500D01*
X0236000Y0053500D01*
X0236000Y0046000D01*
D13*
X0009794Y0011250D02*
X0008293Y0011250D01*
X0007542Y0012001D01*
X0007542Y0015003D01*
X0008293Y0015754D01*
X0009794Y0015754D01*
X0010545Y0015003D01*
X0012146Y0015003D02*
X0012897Y0015754D01*
X0014398Y0015754D01*
X0015149Y0015003D01*
X0015149Y0014253D01*
X0012146Y0011250D01*
X0015149Y0011250D01*
X0010545Y0012001D02*
X0009794Y0011250D01*
X0008999Y0052250D02*
X0005997Y0052250D01*
X0005246Y0053001D01*
X0005246Y0054502D01*
X0005997Y0055253D01*
X0006747Y0056854D02*
X0005246Y0058355D01*
X0009750Y0058355D01*
X0009750Y0056854D02*
X0009750Y0059856D01*
X0008999Y0055253D02*
X0009750Y0054502D01*
X0009750Y0053001D01*
X0008999Y0052250D01*
X0036000Y0056000D02*
X0036000Y0156000D01*
X0236000Y0156000D01*
X0236000Y0056000D01*
X0036000Y0056000D01*
X0101000Y0051433D02*
X0101000Y0042575D01*
X0132496Y0042575D01*
X0132496Y0038835D01*
X0101000Y0038835D01*
X0101000Y0028598D01*
X0132496Y0028598D01*
X0132496Y0024858D01*
X0101000Y0024858D01*
X0101000Y0016000D01*
X0201394Y0016000D01*
X0201394Y0024858D01*
X0169898Y0024858D01*
X0169898Y0028598D01*
X0201394Y0028598D01*
X0201394Y0038835D01*
X0169898Y0038835D01*
X0169898Y0042575D01*
X0201394Y0042575D01*
X0201394Y0051433D01*
X0101000Y0051433D01*
X0101000Y0042575D02*
X0101000Y0038835D01*
X0101000Y0028598D02*
X0101000Y0024858D01*
X0132496Y0028598D02*
X0132496Y0038835D01*
X0136000Y0048480D02*
X0136000Y0018953D01*
X0136433Y0018953D02*
X0165961Y0018953D01*
X0166000Y0018953D02*
X0166000Y0048480D01*
X0165961Y0048480D02*
X0136433Y0048480D01*
X0169898Y0038835D02*
X0169898Y0028598D01*
X0201394Y0028598D02*
X0201394Y0024858D01*
X0201394Y0038835D02*
X0201394Y0042575D01*
D14*
X0211596Y0076200D02*
X0211596Y0080804D01*
X0214665Y0076200D01*
X0214665Y0080804D01*
X0214665Y0131200D02*
X0211596Y0131200D01*
X0211596Y0135804D01*
X0069665Y0115037D02*
X0069665Y0111967D01*
X0068898Y0111200D01*
X0066596Y0111200D01*
X0066596Y0115804D01*
X0068898Y0115804D01*
X0069665Y0115037D01*
X0065061Y0115804D02*
X0065061Y0111200D01*
X0061992Y0115804D01*
X0061992Y0111200D01*
X0060457Y0111967D02*
X0060457Y0113502D01*
X0058923Y0113502D01*
X0060457Y0115037D02*
X0059690Y0115804D01*
X0058156Y0115804D01*
X0057388Y0115037D01*
X0057388Y0111967D01*
X0058156Y0111200D01*
X0059690Y0111200D01*
X0060457Y0111967D01*
X0061992Y0075804D02*
X0061992Y0072735D01*
X0063527Y0071200D01*
X0065061Y0072735D01*
X0065061Y0075804D01*
X0067363Y0074269D02*
X0066596Y0073502D01*
X0066596Y0071967D01*
X0067363Y0071200D01*
X0068898Y0071200D01*
X0069665Y0071967D01*
X0069665Y0073502D01*
X0068898Y0074269D01*
X0067363Y0074269D01*
X0060457Y0073502D02*
X0057388Y0073502D01*
X0058923Y0075037D02*
X0058923Y0071967D01*
M02*
